<svg width="128" height="128" viewBox="0 0 128 128" fill="none" xmlns="http://www.w3.org/2000/svg">
<rect width="128" height="128" rx="32" fill="#09090B" style="fill:#09090B;fill:color(display-p3 0.0353 0.0353 0.0431);fill-opacity:1;"/>
<path d="M33 84.0223V44.03C33 34.5819 33 29.8579 35.9289 26.9289C38.8579 24 43.5719 24 53 24H73C86.2883 24 92.9324 24 95.8467 26.8477C97.801 28.7573 98.8888 31.3834 98.8572 34.1156C98.8101 38.1899 94.112 42.888 84.7157 52.2843C80.3756 56.6244 78.2056 58.7944 77.5031 61.3375C77.0218 63.0799 77.0218 64.9201 77.5031 66.6625C78.2056 69.2056 80.3756 71.3756 84.7157 75.7157C94.112 85.112 98.8101 89.8101 98.8572 93.8844C98.8888 96.6166 97.801 99.2427 95.8467 101.152C92.9324 104 86.2883 104 73 104H53C43.5719 104 38.8579 104 35.9289 101.071C33 98.1421 33 93.4355 33 84.0223Z" fill="#F8FAFC" style="fill:#F8FAFC;fill:color(display-p3 0.9725 0.9804 0.9882);fill-opacity:1;"/>
</svg>
