<svg width="66" height="80" viewBox="0 0 66 80" fill="none" xmlns="http://www.w3.org/2000/svg">
<path d="M0 60.0223V20.03C0 10.5819 0 5.85786 2.92893 2.92893C5.85786 0 10.5719 0 20 0H40C53.2883 0 59.9324 0 62.8467 2.84767C64.801 4.75729 65.8888 7.3834 65.8572 10.1156C65.8101 14.1899 61.112 18.888 51.7157 28.2843C47.3756 32.6244 45.2056 34.7944 44.5031 37.3375C44.0218 39.0799 44.0218 40.9201 44.5031 42.6625C45.2056 45.2056 47.3756 47.3756 51.7157 51.7157C61.112 61.112 65.8101 65.8101 65.8572 69.8844C65.8888 72.6166 64.801 75.2427 62.8467 77.1523C59.9324 80 53.2883 80 40 80H20C10.5719 80 5.85786 80 2.92893 77.0711C0 74.1421 0 69.4355 0 60.0223Z" fill="currentColor" />
</svg>
